# xmcd
#
# Track frame offsets:
#	150
#	15715
#	31480
#	46353
#	59748
#	72266
#	83661
#	98327
#	112479
#	125233
#	137793
#	151904
#	165423
#	190887
#	206940
#	222862
#	247135
#
# Disc length: 3310 seconds
#
# Revision: 1
# Processed by: cddbd v1.5.2PL0 Copyright (c) Steve Scherf et al.
# Submitted via: audiograbber 1.83.01
#
DISCID=000cec11
DTITLE=Chartbusters - Country 500 Vol.1d.8 8532-08
DYEAR=1900
DGENRE=karaoke
TTITLE0=Waylon Jennings - A good hearted woman
TTITLE1=Don Williams - Amanda
TTITLE2=Jeanne Pruett - Satin Sheets
TTITLE3=Johnny Russell - Rednecks, White Socks and Blue Ribbon Beer
TTITLE4=Tanya Tucker - Delta Dawn
TTITLE5=Loretta Lynn and Conway Twitty - Louisiana Woman, Mississippi Man
TTITLE6=Barbara Fairchild - Teddy Bear song
TTITLE7=Charlie Rich - Behind closed doors
TTITLE8=Jean Sheppard - Slippin' away
TTITLE9=Billy Crash Craddock - Rub it in
TTITLE10=Anne Murray - Danny's song
TTITLE11=Marie Osmond - Paper Roses
TTITLE12=David Allenn Coe - You Never Even Call Me by My Name
TTITLE13=Cal Smith - Country Bumpkin
TTITLE14=Ray Stevens - The Streak
TTITLE15=Dolly Parton - Jolene
TTITLE16=Data track - data track
EXTD=
EXTT0=
EXTT1=
EXTT2=
EXTT3=
EXTT4=
EXTT5=
EXTT6=
EXTT7=
EXTT8=
EXTT9=
EXTT10=
EXTT11=
EXTT12=
EXTT13=
EXTT14=
EXTT15=
EXTT16=
PLAYORDER=
